<svg width="256" height="256" viewBox="0 0 256 256" fill="none" xmlns="http://www.w3.org/2000/svg">
<path d="M24 40C24 31.1634 31.1634 24 40 24H216C224.837 24 232 31.1634 232 40V216C232 224.837 224.837 232 216 232H40C31.1634 232 24 224.837 24 216V40Z" fill="url(#paint0_linear_4730_665)"/>
<path d="M128 58C109.435 58 91.6301 65.375 78.5025 78.5025C65.375 91.6301 58 109.435 58 128C58 146.565 65.375 164.37 78.5025 177.497C91.6301 190.625 109.435 198 128 198C146.565 198 164.37 190.625 177.497 177.497C190.625 164.37 198 146.565 198 128C198 109.435 190.625 91.6301 177.497 78.5025C164.37 65.375 146.565 58 128 58ZM127.729 66.75C130.027 66.75 132.303 67.2027 134.426 68.0821C136.549 68.9616 138.478 70.2506 140.103 71.8756C141.728 73.5007 143.017 75.4298 143.897 77.553C144.776 79.6762 145.229 81.9519 145.229 84.25C145.229 88.8913 143.385 93.3425 140.103 96.6244C136.821 99.9063 132.37 101.75 127.729 101.75C123.087 101.75 118.636 99.9063 115.354 96.6244C112.072 93.3425 110.229 88.8913 110.229 84.25C110.229 79.6087 112.072 75.1575 115.354 71.8756C118.636 68.5937 123.087 66.75 127.729 66.75ZM79.6038 110.5H175.854V128H149.604V180.5H132.104V145.5H123.354V180.5H105.854V128H79.6038V110.5Z" fill="white"/>
<defs>
<linearGradient id="paint0_linear_4730_665" x1="24" y1="232" x2="232" y2="24" gradientUnits="userSpaceOnUse">
<stop stop-color="#48658B"/>
<stop offset="1" stop-color="#6582AA"/>
</linearGradient>
</defs>
</svg>
