<svg width="256" height="256" viewBox="0 0 256 256" fill="none" xmlns="http://www.w3.org/2000/svg">
<path d="M24 40C24 31.1634 31.1634 24 40 24H216C224.837 24 232 31.1634 232 40V216C232 224.837 224.837 232 216 232H40C31.1634 232 24 224.837 24 216V40Z" fill="url(#paint0_linear_4718_251)"/>
<path d="M125.368 97L124.081 112.672C119.193 114.513 114.649 117.185 110.643 120.574L96.6317 113.862L82 139.638L94.712 148.61C94.2588 151.215 94.0238 153.855 94.0097 156.5C94.0141 159.157 94.2412 161.808 94.6886 164.425L82 173.362L96.6317 199.138L110.608 192.438C114.625 195.812 119.177 198.468 124.069 200.292L125.357 216H154.62L155.919 200.328C160.807 198.487 165.351 195.815 169.357 192.426L183.368 199.138L198 173.362L185.288 164.39C185.741 161.785 185.976 159.145 185.99 156.5C185.985 153.847 185.758 151.2 185.311 148.586L198 139.638L183.368 113.862L169.392 120.562C165.375 117.188 160.823 114.532 155.931 112.708L154.632 97H125.368ZM140 139.495C144.436 139.495 148.691 141.287 151.828 144.476C154.965 147.665 156.727 151.99 156.727 156.5C156.727 161.01 154.965 165.335 151.828 168.524C148.691 171.714 144.436 173.505 140 173.505C135.564 173.505 131.309 171.714 128.172 168.524C125.035 165.335 123.273 161.01 123.273 156.5C123.273 151.99 125.035 147.665 128.172 144.476C131.309 141.287 135.564 139.495 140 139.495Z" fill="white"/>
<path d="M118.083 101.171L114.14 92.7296C116.133 90.3073 117.703 87.5604 118.783 84.6065L128 83.8295V66.1705L118.783 65.3935C118.251 63.9156 117.595 62.486 116.823 61.1201C116.039 59.7584 115.141 58.4666 114.14 57.2587L118.083 48.8295L102.928 40L97.655 47.6522C94.5805 47.1287 91.4402 47.1367 88.3683 47.6757L83.0833 40L67.9283 48.8295L71.8717 57.2704C69.8825 59.6936 68.3163 62.4404 67.24 65.3935L58 66.1705V83.8295L67.24 84.6065C67.769 86.08 68.4208 87.5057 69.1883 88.8681C69.972 90.2339 70.8697 91.5296 71.8717 92.7413L67.9283 101.171L83.0833 110L88.3567 102.348C91.4318 102.867 94.5722 102.855 97.6433 102.312L102.928 110L118.083 101.171ZM98.0167 83.7471C96.878 84.4113 95.6207 84.8423 94.3167 85.0154C93.0126 85.1885 91.6876 85.1003 90.4174 84.7558C89.1473 84.4113 87.957 83.8173 86.9147 83.0079C85.8724 82.1985 84.9986 81.1894 84.3433 80.0387C83.0203 77.7216 82.663 74.9694 83.3499 72.3866C84.0368 69.8039 85.7117 67.602 88.0067 66.2647C90.3014 64.9287 93.0279 64.5663 95.5872 65.2572C98.1465 65.9481 100.33 67.6358 101.657 69.9495C102.314 71.0966 102.741 72.3632 102.913 73.6768C103.086 74.9905 103 76.3255 102.661 77.6057C102.322 78.8858 101.736 80.0861 100.937 81.1378C100.138 82.1895 99.1419 83.0721 98.005 83.7353L98.0167 83.7471Z" fill="white"/>
<defs>
<linearGradient id="paint0_linear_4718_251" x1="24" y1="232" x2="232" y2="24" gradientUnits="userSpaceOnUse">
<stop stop-color="#8E1EBD"/>
<stop offset="1" stop-color="#AE46DE"/>
</linearGradient>
</defs>
</svg>
