<svg width="16" height="16" viewBox="0 0 16 16" fill="none" xmlns="http://www.w3.org/2000/svg">
<path d="M7.75993 5.99001L7.64993 7.30701C7.23241 7.46169 6.84421 7.68622 6.50193 7.97101L5.30493 7.40701L4.05493 9.57301L5.14093 10.327C5.10221 10.5459 5.08214 10.7677 5.08093 10.99C5.08131 11.2133 5.10071 11.4361 5.13893 11.656L4.05493 12.407L5.30493 14.573L6.49893 14.01C6.84211 14.2936 7.23098 14.5167 7.64893 14.67L7.75893 15.99H10.2589L10.3699 14.673C10.7875 14.5183 11.1757 14.2938 11.5179 14.009L12.7149 14.573L13.9649 12.407L12.8789 11.653C12.9177 11.4341 12.9377 11.2123 12.9389 10.99C12.9385 10.7671 12.9191 10.5446 12.8809 10.325L13.9649 9.57301L12.7149 7.40701L11.5209 7.97001C11.1778 7.68644 10.7889 7.46327 10.3709 7.31001L10.2599 5.99001H7.75993ZM9.00993 9.56101C9.38893 9.56101 9.7524 9.71156 10.0204 9.97955C10.2884 10.2475 10.4389 10.611 10.4389 10.99C10.4389 11.369 10.2884 11.7325 10.0204 12.0005C9.7524 12.2685 9.38893 12.419 9.00993 12.419C8.63094 12.419 8.26747 12.2685 7.99948 12.0005C7.73149 11.7325 7.58093 11.369 7.58093 10.99C7.58093 10.611 7.73149 10.2475 7.99948 9.97955C8.26747 9.71156 8.63094 9.56101 9.00993 9.56101Z" fill="#232323"/>
<path d="M7.19004 6.26L6.85204 5.543C7.02289 5.33724 7.15748 5.10391 7.25004 4.853L8.04004 4.787V3.287L7.25004 3.221C7.20443 3.09545 7.14822 2.97402 7.08204 2.858C7.01482 2.74233 6.93788 2.6326 6.85204 2.53L7.19004 1.814L5.89104 1.064L5.43904 1.714C5.17551 1.66953 4.90634 1.67021 4.64304 1.716L4.19004 1.064L2.89104 1.814L3.22904 2.531C3.05854 2.73682 2.92429 2.97015 2.83204 3.221L2.04004 3.287V4.787L2.83204 4.853C2.87738 4.97816 2.93325 5.09926 2.99904 5.215C3.06621 5.331 3.14316 5.44107 3.22904 5.544L2.89104 6.26L4.19004 7.01L4.64204 6.36C4.90562 6.40413 5.17479 6.40312 5.43804 6.357L5.89104 7.01L7.19004 6.26ZM5.47004 4.78C5.37244 4.83642 5.26467 4.87303 5.15289 4.88773C5.04112 4.90244 4.92755 4.89494 4.81868 4.86568C4.70981 4.83642 4.60778 4.78597 4.51844 4.71721C4.4291 4.64845 4.3542 4.56274 4.29804 4.465C4.18464 4.26818 4.15401 4.03439 4.21289 3.81501C4.27177 3.59562 4.41533 3.40859 4.61204 3.295C4.80873 3.18151 5.04243 3.15073 5.2618 3.20942C5.48117 3.2681 5.66828 3.41146 5.78204 3.608C5.83839 3.70543 5.87499 3.81302 5.88976 3.9246C5.90452 4.03619 5.89716 4.14959 5.8681 4.25833C5.83903 4.36707 5.78883 4.46902 5.72036 4.55836C5.65189 4.64769 5.56649 4.72267 5.46904 4.779L5.47004 4.78Z" fill="#232323"/>
</svg>
