<svg width="256" height="256" viewBox="0 0 256 256" fill="none" xmlns="http://www.w3.org/2000/svg">
<path d="M24 72C24 63.1634 31.1634 56 40 56H216C224.837 56 232 63.1634 232 72V216C232 224.837 224.837 232 216 232H40C31.1634 232 24 224.837 24 216V72Z" fill="#AC7300"/>
<path d="M24 40C24 31.1634 31.1634 24 40 24H216C224.837 24 232 31.1634 232 40V192C232 200.837 224.837 208 216 208H40C31.1634 208 24 200.837 24 192V40Z" fill="#D38F00"/>
<path d="M108 24H148V208H108V24Z" fill="#AC7300"/>
<rect x="108" y="208" width="40" height="24" fill="#865900"/>
<rect x="37" y="40" width="58" height="28" rx="5" fill="#FFEBD1"/>
<rect x="41" y="44" width="6" height="20" rx="1" fill="#372A26"/>
<rect x="51" y="44" width="2" height="20" rx="0.7" fill="#372A26"/>
<path d="M57 44.9C57 44.4029 57.4029 44 57.9 44H60.1C60.5971 44 61 44.4029 61 44.9V63.1C61 63.5971 60.5971 64 60.1 64H57.9C57.4029 64 57 63.5971 57 63.1V44.9Z" fill="#372A26"/>
<path d="M65 45C65 44.4477 65.4477 44 66 44H70C70.5523 44 71 44.4477 71 45V63C71 63.5523 70.5523 64 70 64H66C65.4477 64 65 63.5523 65 63V45Z" fill="#372A26"/>
<path d="M75 44.7C75 44.3134 75.3134 44 75.7 44H76.3C76.6866 44 77 44.3134 77 44.7V63.3C77 63.6866 76.6866 64 76.3 64H75.7C75.3134 64 75 63.6866 75 63.3V44.7Z" fill="#372A26"/>
<path d="M81 45.9C81 45.4029 81.4029 45 81.9 45H84.1C84.5971 45 85 45.4029 85 45.9V64.1C85 64.5971 84.5971 65 84.1 65H81.9C81.4029 65 81 64.5971 81 64.1V45.9Z" fill="#372A26"/>
<path d="M89 44.7C89 44.3134 89.3134 44 89.7 44H90.3C90.6866 44 91 44.3134 91 44.7V63.3C91 63.6866 90.6866 64 90.3 64H89.7C89.3134 64 89 63.6866 89 63.3V44.7Z" fill="#372A26"/>
<path d="M126 24H130V208H126V24Z" fill="#865900"/>
</svg>
