<svg width="256" height="256" viewBox="0 0 256 256" fill="none" xmlns="http://www.w3.org/2000/svg">
<path d="M160 8V48C160 56.8366 167.163 64 176 64H216V232C216 240.837 208.837 248 200 248H56C47.1634 248 40 240.837 40 232V24C40 15.1634 47.1634 8 56 8H160Z" fill="url(#paint0_linear_4476_708)"/>
<path d="M160 8L216 64V72H176C167.163 72 160 64.8366 160 56V8Z" fill="#9E9E9E"/>
<path d="M160 8L216 64H176C167.163 64 160 56.8366 160 48V8Z" fill="#EEEEEE"/>
<path d="M86 88H92.4515V94.6087H98.3981V88H104.85V108H98.3981V101.333H92.5076V108H86M113.377 94.6667H107.683V88H125.551V94.6667H119.828V108H113.377M128.384 88H135.144L139.295 95.0435L143.446 88H150.206V108H143.755V98.087L139.239 105.275L134.723 98.087V108H128.384M153.404 88H159.856V101.391H169V108H153.404" fill="black"/>
<path d="M86.2778 220.539L77 117H179L169.722 220.483L127.916 232" fill="#E44D26"/>
<path d="M127 224V125H169L160.985 214.511" fill="#F16529"/>
<path d="M96 138H127V150.704H109.542L110.684 163.716H127V176.393H99.3719M99.9158 182.773H112.316L113.186 192.93L127 196.736V210L101.656 202.724" fill="#EBEBEB"/>
<path d="M159 138H127V150.714H157.819M156.666 163.736H127V176.45H142.747L141.257 192.973L127 196.782V210L153.151 202.775" fill="white"/>
<defs>
<linearGradient id="paint0_linear_4476_708" x1="216" y1="8.00001" x2="40" y2="248" gradientUnits="userSpaceOnUse">
<stop stop-color="#BEBEBE"/>
<stop offset="1" stop-color="#9E9E9E"/>
</linearGradient>
</defs>
</svg>
